<!-- <svg xmlns="http://www.w3.org/2000/svg" viewBox="0 0 841.9 595.3">
    <g fill="#61DAFB">
        <path d="M666.3 296.5c0-32.5-40.7-63.3-103.1-82.4 14.4-63.6 8-114.2-20.2-130.4-6.5-3.8-14.1-5.6-22.4-5.6v22.3c4.6 0 8.3.9 11.4 2.6 13.6 7.8 19.5 37.5 14.9 75.7-1.1 9.4-2.9 19.3-5.1 29.4-19.6-4.8-41-8.5-63.5-10.9-13.5-18.5-27.5-35.3-41.6-50 32.6-30.3 63.2-46.9 84-46.9V78c-27.5 0-63.5 19.6-99.9 53.6-36.4-33.8-72.4-53.2-99.9-53.2v22.3c20.7 0 51.4 16.5 84 46.6-14 14.7-28 31.4-41.3 49.9-22.6 2.4-44 6.1-63.6 11-2.3-10-4-19.7-5.2-29-4.7-38.2 1.1-67.9 14.6-75.8 3-1.8 6.9-2.6 11.5-2.6V78.5c-8.4 0-16 1.8-22.6 5.6-28.1 16.2-34.4 66.7-19.9 130.1-62.2 19.2-102.7 49.9-102.7 82.3 0 32.5 40.7 63.3 103.1 82.4-14.4 63.6-8 114.2 20.2 130.4 6.5 3.8 14.1 5.6 22.5 5.6 27.5 0 63.5-19.6 99.9-53.6 36.4 33.8 72.4 53.2 99.9 53.2 8.4 0 16-1.8 22.6-5.6 28.1-16.2 34.4-66.7 19.9-130.1 62-19.1 102.5-49.9 102.5-82.3zm-130.2-66.7c-3.7 12.9-8.3 26.2-13.5 39.5-4.1-8-8.4-16-13.1-24-4.6-8-9.5-15.8-14.4-23.4 14.2 2.1 27.9 4.7 41 7.9zm-45.8 106.5c-7.8 13.5-15.8 26.3-24.1 38.2-14.9 1.3-30 2-45.2 2-15.1 0-30.2-.7-45-1.9-8.3-11.9-16.4-24.6-24.2-38-7.6-13.1-14.5-26.4-20.8-39.8 6.2-13.4 13.2-26.8 20.7-39.9 7.8-13.5 15.8-26.3 24.1-38.2 14.9-1.3 30-2 45.2-2 15.1 0 30.2.7 45 1.9 8.3 11.9 16.4 24.6 24.2 38 7.6 13.1 14.5 26.4 20.8 39.8-6.3 13.4-13.2 26.8-20.7 39.9zm32.3-13c5.4 13.4 10 26.8 13.8 39.8-13.1 3.2-26.9 5.9-41.2 8 4.9-7.7 9.8-15.6 14.4-23.7 4.6-8 8.9-16.1 13-24.1zM421.2 430c-9.3-9.6-18.6-20.3-27.8-32 9 .4 18.2.7 27.5.7 9.4 0 18.7-.2 27.8-.7-9 11.7-18.3 22.4-27.5 32zm-74.4-58.9c-14.2-2.1-27.9-4.7-41-7.9 3.7-12.9 8.3-26.2 13.5-39.5 4.1 8 8.4 16 13.1 24 4.7 8 9.5 15.8 14.4 23.4zM420.7 163c9.3 9.6 18.6 20.3 27.8 32-9-.4-18.2-.7-27.5-.7-9.4 0-18.7.2-27.8.7 9-11.7 18.3-22.4 27.5-32zm-74 58.9c-4.9 7.7-9.8 15.6-14.4 23.7-4.6 8-8.9 16-13 24-5.4-13.4-10-26.8-13.8-39.8 13.1-3.1 26.9-5.8 41.2-7.9zm-90.5 125.2c-35.4-15.1-58.3-34.9-58.3-50.6 0-15.7 22.9-35.6 58.3-50.6 8.6-3.7 18-7 27.7-10.1 5.7 19.6 13.2 40 22.5 60.9-9.2 20.8-16.6 41.1-22.2 60.6-9.9-3.1-19.3-6.5-28-10.2zM310 490c-13.6-7.8-19.5-37.5-14.9-75.7 1.1-9.4 2.9-19.3 5.1-29.4 19.6 4.8 41 8.5 63.5 10.9 13.5 18.5 27.5 35.3 41.6 50-32.6 30.3-63.2 46.9-84 46.9-4.5-.1-8.3-1-11.3-2.7zm237.2-76.2c4.7 38.2-1.1 67.9-14.6 75.8-3 1.8-6.9 2.6-11.5 2.6-20.7 0-51.4-16.5-84-46.6 14-14.7 28-31.4 41.3-49.9 22.6-2.4 44-6.1 63.6-11 2.3 10.1 4.1 19.8 5.2 29.1zm38.5-66.7c-8.6 3.7-18 7-27.7 10.1-5.7-19.6-13.2-40-22.5-60.9 9.2-20.8 16.6-41.1 22.2-60.6 9.9 3.1 19.3 6.5 28.1 10.2 35.4 15.1 58.3 34.9 58.3 50.6-.1 15.7-23 35.6-58.4 50.6zM320.8 78.4z"/>
        <circle cx="420.9" cy="296.5" r="45.7"/>
        <path d="M520.5 78.1z"/>
    </g>
</svg> -->

		
	
<svg width="200" height="200" viewBox="0 0 347 346" fill="none" xmlns="http://www.w3.org/2000/svg">
<g id="logo" filter="url(#filter0_d)">
<g id="main-logo">
<g id="undraw_feeling_proud_qne1 1" filter="url(#filter1_i)">
<g clip-path="url(#clip0)">
<path id="Vector" d="M248.664 163.428V242.986L263.327 264.674L264.443 266.324H322.299L323.468 163.428H248.664Z" fill="#E6E6E6"/>
<path id="Vector_2" opacity="0.1" d="M248.664 163.428V242.986L263.327 264.674L264.227 163.428H248.664Z" fill="black"/>
<path id="Vector_3" d="M108.99 161.307V240.865L94.3273 262.553L93.2113 264.202H35.355L34.186 161.307H108.99Z" fill="#E6E6E6"/>
<path id="Vector_4" opacity="0.1" d="M108.99 161.307V240.865L94.3272 262.552L93.4274 161.307H108.99Z" fill="black"/>
<path id="Vector_5" d="M341 159.716V164.489H26.5886V157.594L55.8089 143.804H315.286L341 159.716Z" fill="#E6E6E6"/>
<path id="Vector_6" opacity="0.1" d="M341 159.716V164.489H26.5886V157.594L341 159.716Z" fill="black"/>
<path id="Vector_7" d="M71.5883 183.583H57.5622L51.7181 179.87H78.0166L71.5883 183.583Z" fill="#3F3D56"/>
<path id="Vector_8" d="M71.5883 198.964H57.5622L51.7181 195.252H78.0166L71.5883 198.964Z" fill="#3F3D56"/>
<path id="Vector_9" d="M71.5883 220.71H57.5622L51.7181 216.997H78.0166L71.5883 220.71Z" fill="#3F3D56"/>
<path id="Vector_10" d="M71.5883 242.456H57.5622L51.7181 238.743H78.0166L71.5883 242.456Z" fill="#3F3D56"/>
<path id="Vector_11" d="M286.066 185.704H300.092L305.936 181.992H279.637L286.066 185.704Z" fill="#3F3D56"/>
<path id="Vector_12" d="M286.066 201.086H300.092L305.936 197.373H279.637L286.066 201.086Z" fill="#3F3D56"/>
<path id="Vector_13" d="M286.066 222.832H300.092L305.936 219.119H279.637L286.066 222.832Z" fill="#3F3D56"/>
<path id="Vector_14" d="M286.066 244.578H300.092L305.936 240.865H279.637L286.066 244.578Z" fill="#3F3D56"/>
<path id="Vector_15" d="M295.617 51.8027H177.539C176.953 51.8027 176.372 51.9074 175.83 52.1111C175.288 52.3147 174.796 52.6133 174.381 52.9896C173.967 53.366 173.638 53.8128 173.413 54.3045C173.189 54.7962 173.074 55.3233 173.074 55.8555V128.043C173.074 128.576 173.189 129.103 173.413 129.595C173.638 130.086 173.967 130.533 174.381 130.909C174.796 131.286 175.288 131.584 175.83 131.788C176.372 131.992 176.953 132.096 177.539 132.096H222.362L220.683 141.827C220.683 141.827 211.086 146.454 217.834 146.59C224.582 146.726 256.372 146.59 256.372 146.59C256.372 146.59 262.52 146.59 252.773 141.691L251.193 132.096H295.617C296.203 132.096 296.784 131.992 297.326 131.788C297.868 131.584 298.36 131.286 298.775 130.909C299.189 130.533 299.518 130.086 299.743 129.595C299.967 129.103 300.083 128.576 300.083 128.043V55.8555C300.083 55.3233 299.967 54.7962 299.743 54.3045C299.518 53.8128 299.189 53.366 298.775 52.9896C298.36 52.6133 297.868 52.3147 297.326 52.1111C296.784 51.9074 296.203 51.8027 295.617 51.8027V51.8027Z" fill="#3F3D56"/>
<path id="Vector_16" d="M295.809 56.0896H177.347V116.242H295.809V56.0896Z" fill="#F2F2F2"/>
<path id="Vector_17" d="M236.578 54.8648C236.992 54.8648 237.328 54.5602 237.328 54.1844C237.328 53.8086 236.992 53.5039 236.578 53.5039C236.164 53.5039 235.828 53.8086 235.828 54.1844C235.828 54.5602 236.164 54.8648 236.578 54.8648Z" fill="#F2F2F2"/>
<path id="Vector_18" d="M236.578 129.17C238.152 129.17 239.427 128.013 239.427 126.585C239.427 125.157 238.152 123.999 236.578 123.999C235.005 123.999 233.729 125.157 233.729 126.585C233.729 128.013 235.005 129.17 236.578 129.17Z" fill="#F2F2F2"/>
<path id="Vector_19" d="M232.138 153.939V155.3H151.465V154.211L151.575 153.939L153.564 149.04H230.489L232.138 153.939Z" fill="#3F3D56"/>
<path id="Vector_20" d="M263.184 152.607C263.037 153.177 262.483 153.778 261.229 154.347C256.73 156.388 247.583 153.803 247.583 153.803C247.583 153.803 240.536 152.714 240.536 149.856C240.734 149.733 240.94 149.622 241.153 149.523C243.045 148.615 249.316 146.374 260.435 149.618C261.254 149.851 261.986 150.286 262.548 150.875C262.798 151.097 262.985 151.37 263.096 151.671C263.206 151.972 263.237 152.293 263.184 152.607Z" fill="#3F3D56"/>
<path id="Vector_21" opacity="0.1" d="M263.184 152.607C257.678 154.521 252.77 154.664 247.733 151.489C245.829 150.211 243.522 149.522 241.153 149.523C243.045 148.615 249.316 146.374 260.435 149.618C261.254 149.851 261.986 150.286 262.548 150.875C262.798 151.097 262.985 151.37 263.096 151.671C263.206 151.972 263.237 152.293 263.184 152.607Z" fill="black"/>
<path id="Vector_22" d="M256.281 151.489C257.357 151.489 258.23 151.246 258.23 150.945C258.23 150.644 257.357 150.401 256.281 150.401C255.204 150.401 254.331 150.644 254.331 150.945C254.331 151.246 255.204 151.489 256.281 151.489Z" fill="#F2F2F2"/>
<path id="Vector_23" opacity="0.1" d="M232.138 153.939V155.3H151.465V154.211L151.575 153.939H232.138Z" fill="black"/>
<path id="Vector_24" d="M48.8558 0.000498467C48.037 -0.0605108 47.2172 0.105707 46.5049 0.477127C45.8055 0.911826 45.3646 1.67337 44.9147 2.38204C43.1943 5.1239 40.8652 7.51161 38.0749 9.39392C36.0426 10.7452 33.4588 12.43 33.8065 14.9213C33.9899 15.744 34.3248 16.5328 34.7971 17.2545C36.672 20.6894 41.7882 23.3438 41.2849 27.2632C43.1476 24.4331 40.6561 23.0337 42.5188 20.2035C43.4059 18.8557 44.9469 17.3343 46.2862 18.1807C46.7347 18.4642 47.0291 18.9725 47.4961 19.2211C48.6102 19.8145 49.7955 18.6801 50.7817 17.8766C54.1825 15.1059 59.0187 15.8318 63.2507 16.6951C65.2486 17.1026 67.443 17.6373 68.624 19.3703C70.1769 21.6488 67.1487 24.1097 66.3836 26.6858C66.3212 26.9053 66.3182 27.1352 66.375 27.356C66.4318 27.5768 66.5467 27.7818 66.7099 27.9535C66.873 28.1251 67.0795 28.2584 67.3118 28.3419C67.544 28.4253 67.7951 28.4565 68.0435 28.4327C69.3133 28.319 70.8176 28.2258 70.8927 27.7201C72.4903 27.7717 74.4479 27.6075 75.1324 26.0977C75.3416 25.5004 75.4522 24.8782 75.4606 24.2514C75.7118 21.7153 76.8978 19.4016 77.6835 16.9879C78.4692 14.5741 78.8108 11.7453 77.4849 9.6052C77.0117 8.89315 76.4265 8.24764 75.7478 7.68906C68.2234 1.08052 58.3306 -0.00931107 48.8558 0.000498467Z" fill="#2F2E41"/>
<path id="Vector_25" d="M42.9214 32.2133C42.9214 32.2133 44.5578 44.5896 38.5576 45.5797C32.5574 46.5698 44.0123 63.4016 44.0123 63.4016L71.2859 66.3719L64.7402 46.5698C64.7402 46.5698 60.3765 45.0847 63.1038 35.1837C65.8312 25.2826 42.9214 32.2133 42.9214 32.2133Z" fill="#FFB8B8"/>
<path id="Vector_26" d="M26.2844 244.838L28.4665 272.066H39.921L36.6486 244.838H26.2844Z" fill="#FFB8B8"/>
<path id="Vector_27" d="M110.287 193.352L111.923 216.125L124.47 211.174L119.56 192.362L110.287 193.352Z" fill="#FFB8B8"/>
<path id="Vector_28" d="M18.1024 140.877C18.1024 140.877 18.6479 169.59 21.9207 178.996C25.1936 188.402 24.6481 188.897 24.1026 190.382C23.5572 191.867 23.0117 190.877 23.0117 193.353C23.0117 195.828 21.9207 234.937 23.0117 238.402C24.1026 241.868 19.7389 247.808 23.0117 248.303C26.2845 248.798 41.5577 248.303 42.1032 245.333C42.6487 242.363 37.7394 241.373 39.9213 239.392C42.1032 237.412 45.376 196.818 45.376 196.818L53.0126 168.6L67.1949 153.748H97.1958L106.469 186.422C106.469 186.422 102.651 195.828 105.378 195.828C108.105 195.828 124.469 198.798 124.469 187.907C124.469 177.016 119.015 144.838 117.924 143.847C116.833 142.857 118.469 139.392 116.833 137.907C115.196 136.422 96.1049 126.026 89.0138 124.045C81.9226 122.065 71.975 119.708 71.975 119.708L18.1024 140.877Z" fill="#2F2E41"/>
<path id="Vector_29" d="M124.469 207.214C124.469 207.214 116.287 204.739 112.469 212.164C108.651 219.59 110.287 221.57 110.287 221.57C110.287 221.57 122.833 225.531 125.015 223.551C125.964 222.689 128.978 222.39 132.081 222.327C136.807 222.23 138.064 216.162 133.601 214.749C133.468 214.707 133.333 214.671 133.197 214.64C128.833 213.65 124.469 207.214 124.469 207.214Z" fill="#2F2E41"/>
<path id="Vector_30" d="M55.1945 40.3817C64.2322 40.3817 71.5586 33.7324 71.5586 25.5301C71.5586 17.3278 64.2322 10.6786 55.1945 10.6786C46.1568 10.6786 38.8303 17.3278 38.8303 25.5301C38.8303 33.7324 46.1568 40.3817 55.1945 40.3817Z" fill="#FFB8B8"/>
<path id="Vector_31" d="M33.9211 51.7678C33.9211 51.7678 60.6492 56.7183 67.1949 48.7975C73.7406 40.8767 76.4679 71.0748 76.4679 71.0748L79.7407 102.758L74.8315 120.085C74.8315 120.085 49.1943 138.897 41.0122 140.382C32.8302 141.867 20.2843 142.857 20.2843 142.857C20.2843 142.857 24.1026 87.9065 24.1026 86.9164C24.1026 85.9263 33.9211 51.7678 33.9211 51.7678Z" fill="#6C63FF"/>
<path id="Vector_32" d="M42.0497 42.4833C42.0497 42.4833 36.103 39.3916 34.4665 42.3619C32.8301 45.3322 17.5569 52.7579 15.9205 52.7579C14.2841 52.7579 19.1933 93.8472 17.0114 98.7977C14.8296 103.748 4.4656 139.887 10.4658 142.857C16.466 145.828 12.1022 139.887 18.1024 147.313C24.1026 154.739 53.5581 154.738 55.1945 151.768C56.8309 148.798 42.1032 126.521 44.8305 105.728C47.5579 84.9363 51.9216 56.2233 48.1033 52.2629C44.285 48.3025 42.0497 42.4833 42.0497 42.4833Z" fill="#2F2E41"/>
<path id="Vector_33" d="M61.7401 45.8272L62.4999 43.4542C62.4999 43.4542 85.1954 50.2827 86.2863 54.7381C87.3773 59.1936 86.8318 90.3818 83.0135 92.8571C79.1952 95.3323 73.7405 99.2927 77.5588 105.233C81.3771 111.174 85.7409 117.61 89.0137 118.105C92.2866 118.6 98.2867 122.065 96.6503 125.53C95.0139 128.996 75.3769 122.56 75.3769 122.56C75.3769 122.56 62.2856 113.649 62.8311 99.7878C63.3765 85.9263 61.7401 45.8272 61.7401 45.8272Z" fill="#2F2E41"/>
<path id="Vector_34" d="M80.8316 104.243L67.7403 126.521C67.7403 126.521 48.6488 144.342 59.5583 146.323C70.4677 148.303 76.4679 129.986 76.4679 129.986L90.6502 111.669L80.8316 104.243Z" fill="#FFB8B8"/>
<path id="Vector_35" d="M49.653 3.88593C48.9934 3.84157 48.3328 3.95787 47.7393 4.22281C47.2027 4.57849 46.7604 5.03848 46.4448 5.56918C44.9899 7.55541 43.0933 9.24353 40.877 10.5251C39.2225 11.4802 37.1192 12.671 37.4023 14.4318C37.5559 15.0222 37.8294 15.5815 38.2087 16.081C39.7402 18.5332 40.3498 21.3715 39.9455 24.1663L44.4945 18.1653C45.2166 17.2127 46.4711 16.1374 47.5613 16.7356C47.9264 16.9359 48.1661 17.2952 48.5462 17.4709C49.4531 17.8903 50.418 17.0886 51.2208 16.5207C53.9892 14.5624 57.9261 15.0754 61.3711 15.6856C62.9975 15.9736 64.7838 16.3515 65.7452 17.5764C67.3429 19.6119 65.6746 22.553 66.6071 24.9045C66.8681 24.7387 67.0898 24.5269 67.259 24.2819C67.4282 24.0369 67.5414 23.7635 67.592 23.478C68.8925 23.5145 70.4861 23.3984 71.0433 22.3313C71.2128 21.9131 71.3031 21.4719 71.3105 21.0263C71.515 19.2338 72.4804 17.5985 73.12 15.8925C73.7596 14.1864 74.0377 12.187 72.9584 10.6745C72.5635 10.1619 72.0869 9.70552 71.5443 9.32014C65.4191 4.64927 57.3659 3.87899 49.653 3.88593Z" fill="#2F2E41"/>
<path id="Vector_36" d="M80.8317 52.7579L85.9139 53.9822C85.9139 53.9822 97.7413 81.4709 95.0139 100.283C92.2866 119.095 90.6502 115.134 90.6502 115.134C90.6502 115.134 86.2864 106.223 76.4679 108.204L80.8317 52.7579Z" fill="#2F2E41"/>
<path id="Vector_37" d="M27.0402 268.467C25.7248 270.089 25.9885 272.408 24.8233 274.123C23.8133 275.609 21.9099 276.388 20.6466 277.705C20.2435 278.142 19.8841 278.611 19.5728 279.106C18.4009 280.888 17.4483 283.171 18.6025 284.962C19.531 286.403 21.4825 286.966 23.2723 287.35C25.5345 287.835 27.885 288.223 30.1733 287.853C32.4617 287.482 34.6981 286.21 35.514 284.235C35.6744 283.738 35.865 283.25 36.085 282.772C37.3253 280.556 41.2157 280.532 42.4851 278.33C43.3734 276.789 42.5568 274.925 41.7406 273.352L39.2476 268.545C38.4202 266.95 35.0664 267.867 33.318 267.485C31.0377 266.986 28.6806 266.437 27.0402 268.467Z" fill="#2F2E41"/>
<path id="Vector_38" d="M8.82935 114.144L31.7392 146.323C31.7392 146.323 45.9214 162.659 50.2852 155.234C54.649 147.808 35.012 135.431 35.012 135.431L20.2842 110.679L8.82935 114.144Z" fill="#FFB8B8"/>
<path id="Vector_39" d="M20.2843 53.748L15.9205 52.7579C15.9205 52.7579 7.19296 55.2332 5.01108 65.6293C2.82919 76.0253 4.4656 117.61 7.19296 118.105C9.92032 118.6 20.6634 110.864 22.383 112.504C24.1026 114.144 18.6479 105.728 20.2843 101.273C21.9207 96.8175 20.2843 53.748 20.2843 53.748Z" fill="#2F2E41"/>
<path id="Vector_40" d="M296 56H177V120H296V56Z" fill="#3F3D56"/>
<path id="Vector_41" d="M278.65 97.1151L275.283 109.984L276.823 110.524L280.189 97.6555L278.65 97.1151Z" fill="#6C63FF"/>
<path id="Vector_42" d="M212.022 72.2491H195.911V73.9694H212.022V72.2491Z" fill="#6C63FF"/>
<path id="Vector_43" d="M233.82 72.2491H217.709V73.9694H233.82V72.2491Z" fill="#6C63FF"/>
<path id="Vector_44" d="M252.774 87.7311H236.663V89.0212H252.774V87.7311Z" fill="#6C63FF"/>
<path id="Vector_45" d="M274.571 87.7311H258.46V89.0212H274.571V87.7311Z" fill="#6C63FF"/>
<path id="Vector_46" d="M287.365 72.2491H239.506V73.9694H287.365V72.2491Z" fill="#6C63FF"/>
<path id="Vector_47" d="M231.45 87.7311H183.591V89.0212H231.45V87.7311Z" fill="#6C63FF"/>
<path id="Vector_48" d="M231.45 102.353H183.591V104.073H231.45V102.353Z" fill="#6C63FF"/>
<path id="Vector_49" d="M269.833 102.353H236.663V104.073H269.833V102.353Z" fill="#6C63FF"/>
<path id="Vector_50" d="M189.119 79.9901L183.591 73.3245L189.119 66.6584L190.225 67.992L185.803 73.3245L190.225 78.6565L189.119 79.9901Z" fill="#6C63FF"/>
<path id="Vector_51" d="M287.05 110.094L285.944 108.76L290.366 103.428L285.944 98.0958L287.05 96.7623L292.578 103.428L287.05 110.094Z" fill="#6C63FF"/>
</g>
</g>

</g>
<path id="theCypherExalt_2" d="M23.7743 312.196V321.844C23.7743 322.516 23.9303 323.008 24.2423 323.32C24.5783 323.608 25.1303 323.752 25.8983 323.752H28.2383V328H25.0703C20.8223 328 18.6983 325.936 18.6983 321.808V312.196H16.3223V308.056H18.6983V303.124H23.7743V308.056H28.2383V312.196H23.7743ZM46.6953 307.768C48.2073 307.768 49.5513 308.104 50.7273 308.776C51.9033 309.424 52.8153 310.396 53.4633 311.692C54.1353 312.964 54.4713 314.5 54.4713 316.3V328H49.4313V316.984C49.4313 315.4 49.0353 314.188 48.2433 313.348C47.4513 312.484 46.3713 312.052 45.0033 312.052C43.6113 312.052 42.5073 312.484 41.6913 313.348C40.8993 314.188 40.5033 315.4 40.5033 316.984V328H35.4633V301.36H40.5033V310.54C41.1513 309.676 42.0153 309.004 43.0953 308.524C44.1753 308.02 45.3753 307.768 46.6953 307.768ZM81.4041 317.596C81.4041 318.316 81.3561 318.964 81.2601 319.54H66.6801C66.8001 320.98 67.3041 322.108 68.1921 322.924C69.0801 323.74 70.1721 324.148 71.4681 324.148C73.3401 324.148 74.6721 323.344 75.4641 321.736H80.9001C80.3241 323.656 79.2201 325.24 77.5881 326.488C75.9561 327.712 73.9521 328.324 71.5761 328.324C69.6561 328.324 67.9281 327.904 66.3921 327.064C64.8801 326.2 63.6921 324.988 62.8281 323.428C61.9881 321.868 61.5681 320.068 61.5681 318.028C61.5681 315.964 61.9881 314.152 62.8281 312.592C63.6681 311.032 64.8441 309.832 66.3561 308.992C67.8681 308.152 69.6081 307.732 71.5761 307.732C73.4721 307.732 75.1641 308.14 76.6521 308.956C78.1641 309.772 79.3281 310.936 80.1441 312.448C80.9841 313.936 81.4041 315.652 81.4041 317.596ZM76.1841 316.156C76.1601 314.86 75.6921 313.828 74.7801 313.06C73.8681 312.268 72.7521 311.872 71.4321 311.872C70.1841 311.872 69.1281 312.256 68.2641 313.024C67.4241 313.768 66.9081 314.812 66.7161 316.156H76.1841ZM87.4588 315.4C87.4588 312.928 88.0108 310.72 89.1148 308.776C90.2428 306.808 91.7668 305.284 93.6868 304.204C95.6308 303.1 97.8028 302.548 100.203 302.548C103.011 302.548 105.471 303.268 107.583 304.708C109.695 306.148 111.171 308.14 112.011 310.684H106.215C105.639 309.484 104.823 308.584 103.767 307.984C102.735 307.384 101.535 307.084 100.167 307.084C98.7028 307.084 97.3948 307.432 96.2428 308.128C95.1148 308.8 94.2268 309.76 93.5788 311.008C92.9548 312.256 92.6428 313.72 92.6428 315.4C92.6428 317.056 92.9548 318.52 93.5788 319.792C94.2268 321.04 95.1148 322.012 96.2428 322.708C97.3948 323.38 98.7028 323.716 100.167 323.716C101.535 323.716 102.735 323.416 103.767 322.816C104.823 322.192 105.639 321.28 106.215 320.08H112.011C111.171 322.648 109.695 324.652 107.583 326.092C105.495 327.508 103.035 328.216 100.203 328.216C97.8028 328.216 95.6308 327.676 93.6868 326.596C91.7668 325.492 90.2428 323.968 89.1148 322.024C88.0108 320.08 87.4588 317.872 87.4588 315.4ZM138.996 308.056L126.648 337.432H121.284L125.604 327.496L117.612 308.056H123.264L128.412 321.988L133.632 308.056H138.996ZM150.353 310.936C151.001 310.024 151.889 309.268 153.017 308.668C154.169 308.044 155.477 307.732 156.941 307.732C158.645 307.732 160.181 308.152 161.549 308.992C162.941 309.832 164.033 311.032 164.825 312.592C165.641 314.128 166.049 315.916 166.049 317.956C166.049 319.996 165.641 321.808 164.825 323.392C164.033 324.952 162.941 326.164 161.549 327.028C160.181 327.892 158.645 328.324 156.941 328.324C155.477 328.324 154.181 328.024 153.053 327.424C151.949 326.824 151.049 326.068 150.353 325.156V337.504H145.313V308.056H150.353V310.936ZM160.901 317.956C160.901 316.756 160.649 315.724 160.145 314.86C159.665 313.972 159.017 313.3 158.201 312.844C157.409 312.388 156.545 312.16 155.609 312.16C154.697 312.16 153.833 312.4 153.017 312.88C152.225 313.336 151.577 314.008 151.073 314.896C150.593 315.784 150.353 316.828 150.353 318.028C150.353 319.228 150.593 320.272 151.073 321.16C151.577 322.048 152.225 322.732 153.017 323.212C153.833 323.668 154.697 323.896 155.609 323.896C156.545 323.896 157.409 323.656 158.201 323.176C159.017 322.696 159.665 322.012 160.145 321.124C160.649 320.236 160.901 319.18 160.901 317.956ZM184.543 307.768C186.055 307.768 187.399 308.104 188.575 308.776C189.751 309.424 190.663 310.396 191.311 311.692C191.983 312.964 192.319 314.5 192.319 316.3V328H187.279V316.984C187.279 315.4 186.883 314.188 186.091 313.348C185.299 312.484 184.219 312.052 182.851 312.052C181.459 312.052 180.355 312.484 179.539 313.348C178.747 314.188 178.351 315.4 178.351 316.984V328H173.311V301.36H178.351V310.54C178.999 309.676 179.863 309.004 180.943 308.524C182.023 308.02 183.223 307.768 184.543 307.768ZM219.252 317.596C219.252 318.316 219.204 318.964 219.108 319.54H204.528C204.648 320.98 205.152 322.108 206.04 322.924C206.928 323.74 208.02 324.148 209.316 324.148C211.188 324.148 212.52 323.344 213.312 321.736H218.748C218.172 323.656 217.068 325.24 215.436 326.488C213.804 327.712 211.8 328.324 209.424 328.324C207.504 328.324 205.776 327.904 204.24 327.064C202.728 326.2 201.54 324.988 200.676 323.428C199.836 321.868 199.416 320.068 199.416 318.028C199.416 315.964 199.836 314.152 200.676 312.592C201.516 311.032 202.692 309.832 204.204 308.992C205.716 308.152 207.456 307.732 209.424 307.732C211.32 307.732 213.012 308.14 214.5 308.956C216.012 309.772 217.176 310.936 217.992 312.448C218.832 313.936 219.252 315.652 219.252 317.596ZM214.032 316.156C214.008 314.86 213.54 313.828 212.628 313.06C211.716 312.268 210.6 311.872 209.28 311.872C208.032 311.872 206.976 312.256 206.112 313.024C205.272 313.768 204.756 314.812 204.564 316.156H214.032ZM231.57 311.152C232.218 310.096 233.058 309.268 234.09 308.668C235.146 308.068 236.346 307.768 237.69 307.768V313.06H236.358C234.774 313.06 233.574 313.432 232.758 314.176C231.966 314.92 231.57 316.216 231.57 318.064V328H226.53V308.056H231.57V311.152ZM249.725 306.94V313.24H258.185V317.236H249.725V323.896H259.265V328H244.685V302.836H259.265V306.94H249.725ZM278.461 328L274.357 321.808L270.721 328H265.321L271.837 317.992L265.249 308.056H270.937L275.005 314.212L278.677 308.056H284.077L277.525 317.992L284.149 328H278.461ZM289.191 317.956C289.191 315.94 289.587 314.152 290.379 312.592C291.195 311.032 292.287 309.832 293.655 308.992C295.047 308.152 296.595 307.732 298.299 307.732C299.787 307.732 301.083 308.032 302.187 308.632C303.315 309.232 304.215 309.988 304.887 310.9V308.056H309.963V328H304.887V325.084C304.239 326.02 303.339 326.8 302.187 327.424C301.059 328.024 299.751 328.324 298.263 328.324C296.583 328.324 295.047 327.892 293.655 327.028C292.287 326.164 291.195 324.952 290.379 323.392C289.587 321.808 289.191 319.996 289.191 317.956ZM304.887 318.028C304.887 316.804 304.647 315.76 304.167 314.896C303.687 314.008 303.039 313.336 302.223 312.88C301.407 312.4 300.531 312.16 299.595 312.16C298.659 312.16 297.795 312.388 297.003 312.844C296.211 313.3 295.563 313.972 295.059 314.86C294.579 315.724 294.339 316.756 294.339 317.956C294.339 319.156 294.579 320.212 295.059 321.124C295.563 322.012 296.211 322.696 297.003 323.176C297.819 323.656 298.683 323.896 299.595 323.896C300.531 323.896 301.407 323.668 302.223 323.212C303.039 322.732 303.687 322.06 304.167 321.196C304.647 320.308 304.887 319.252 304.887 318.028ZM323.525 301.36V328H318.485V301.36H323.525ZM337.973 312.196V321.844C337.973 322.516 338.129 323.008 338.441 323.32C338.777 323.608 339.329 323.752 340.097 323.752H342.437V328H339.269C335.021 328 332.897 325.936 332.897 321.808V312.196H330.521V308.056H332.897V303.124H337.973V308.056H342.437V312.196H337.973Z" fill="#18D5A7"/>
</g>
<defs>
<filter id="filter0_d" x="0" y="0" width="346.437" height="345.504" filterUnits="userSpaceOnUse" color-interpolation-filters="sRGB">
<feFlood flood-opacity="0" result="BackgroundImageFix"/>
<feColorMatrix in="SourceAlpha" type="matrix" values="0 0 0 0 0 0 0 0 0 0 0 0 0 0 0 0 0 0 127 0"/>
<feOffset dy="4"/>
<feGaussianBlur stdDeviation="2"/>
<feColorMatrix type="matrix" values="0 0 0 0 0 0 0 0 0 0 0 0 0 0 0 0 0 0 0.25 0"/>
<feBlend mode="normal" in2="BackgroundImageFix" result="effect1_dropShadow"/>
<feBlend mode="normal" in="SourceGraphic" in2="effect1_dropShadow" result="shape"/>
</filter>
<filter id="filter1_i" x="4" y="0" width="337" height="292" filterUnits="userSpaceOnUse" color-interpolation-filters="sRGB">
<feFlood flood-opacity="0" result="BackgroundImageFix"/>
<feBlend mode="normal" in="SourceGraphic" in2="BackgroundImageFix" result="shape"/>
<feColorMatrix in="SourceAlpha" type="matrix" values="0 0 0 0 0 0 0 0 0 0 0 0 0 0 0 0 0 0 127 0" result="hardAlpha"/>
<feOffset dy="4"/>
<feGaussianBlur stdDeviation="2"/>
<feComposite in2="hardAlpha" operator="arithmetic" k2="-1" k3="1"/>
<feColorMatrix type="matrix" values="0 0 0 0 0 0 0 0 0 0 0 0 0 0 0 0 0 0 0.25 0"/>
<feBlend mode="normal" in2="shape" result="effect1_innerShadow"/>
</filter>
<clipPath id="clip0">
<rect x="4" width="337" height="288" fill="white"/>
</clipPath>
</defs>
</svg>

